<svg enable-background="new 0 0 50 50" height="50" viewBox="0 0 50 50" width="50" xmlns="http://www.w3.org/2000/svg"><path d="m278.227 48.554-12.067-12.099c6.305-8.116 5.756-19.907-1.714-27.377-3.944-3.928-9.144-6.08-14.692-6.08-5.542 0-10.747 2.152-14.675 6.08s-6.08 9.132-6.08 14.676c0 5.548 2.151 10.747 6.08 14.692 3.928 3.91 9.132 6.063 14.675 6.063 4.664 0 9.086-1.521 12.703-4.349l12.098 12.066c.496.527 1.174.775 1.853.775.646 0 1.324-.248 1.82-.775 1.022-1.023 1.022-2.649-.001-3.672zm-39.461-13.813c-2.932-2.933-4.544-6.837-4.544-10.988s1.613-8.056 4.544-10.987c2.932-2.932 6.836-4.545 10.987-4.545 4.15 0 8.056 1.613 10.988 4.545 6.056 6.056 6.056 15.918 0 21.975-2.933 2.932-6.838 4.544-10.988 4.544-4.151 0-8.055-1.612-10.987-4.544z" fill="#ff1744" stroke="#000" stroke-width=".2" transform="translate(-229 -3)"/></svg>